<svg id="Layer_1" data-name="Layer 1" xmlns="http://www.w3.org/2000/svg" viewBox="0 0 520.25 136.03"><defs><style>.cls-1{fill:#00aeef;}.cls-2{font-size:33.85px;fill:#231f20;font-family:MonotypeCorsiva, Monotype Corsiva;}</style></defs><path class="cls-1" d="M147.41,117.07H39.54V43.17H147.41c16.92,0,30.69,16.57,30.69,37S164.33,117.07,147.41,117.07Zm-94-13.69h94c9.13,0,16.85-10.65,16.85-23.26s-7.72-23.27-16.85-23.27h-94Z" transform="translate(-37.51 -43.17)"/><path class="cls-1" d="M209.86,112.27a6.18,6.18,0,0,1-6.21,6.14h0a6.18,6.18,0,0,1-6.21-6.14V69.67a6.18,6.18,0,0,1,6.21-6.14h0a6.18,6.18,0,0,1,6.21,6.14Z" transform="translate(-37.51 -43.17)"/><ellipse class="cls-1" cx="166.14" cy="8.23" rx="6.93" ry="6.85"/><path class="cls-1" d="M397.72,112.27a6.18,6.18,0,0,1-6.21,6.14h0a6.18,6.18,0,0,1-6.21-6.14V69.67a6.18,6.18,0,0,1,6.21-6.14h0a6.18,6.18,0,0,1,6.21,6.14Z" transform="translate(-37.51 -43.17)"/><path class="cls-1" d="M493.44,112.27c0,3.39-3.27,6.14-7.31,6.14h0c-4,0-7.31-2.75-7.31-6.14V54.47c0-3.4,3.27-6.14,7.31-6.14h0c4,0,7.31,2.74,7.31,6.14Z" transform="translate(-37.51 -43.17)"/><path class="cls-1" d="M421.45,58.62c-3.43,0-6.21-3.23-6.21-7.22h0c0-4,2.78-7.23,6.21-7.23h130.1c3.43,0,6.21,3.23,6.21,7.23h0c0,4-2.78,7.22-6.21,7.22Z" transform="translate(-37.51 -43.17)"/><ellipse class="cls-1" cx="354" cy="8.23" rx="6.93" ry="6.85"/><path class="cls-1" d="M345.71,88.35H268.47a6.61,6.61,0,0,1,0-13.21h77.24c5.8,0,10.7-3.85,10.7-8.42s-4.9-8.43-10.7-8.43H236.26a6.61,6.61,0,0,1,0-13.21H345.71c12.94,0,23.46,9.71,23.46,21.64S358.65,88.35,345.71,88.35Z" transform="translate(-37.51 -43.17)"/><path class="cls-1" d="M360.33,118.41h-107c-12.93,0-23.46-9.7-23.46-21.63s10.53-21.64,23.46-21.64h85a6.61,6.61,0,0,1,0,13.21h-85c-5.79,0-10.69,3.86-10.69,8.43s4.9,8.42,10.69,8.42h107a6.61,6.61,0,0,1,0,13.21Z" transform="translate(-37.51 -43.17)"/><text class="cls-2" transform="translate(0 125.65)">Trusted Partner for Digital Transformation</text></svg>